<svg width="32" height="21" viewBox="0 0 32 21" fill="none" xmlns="http://www.w3.org/2000/svg">
<g filter="url(#filter0_d)">
<ellipse cx="26.6978" cy="6.5625" rx="1.30232" ry="1.3125" fill="url(#paint0_radial)"/>
</g>
<g clip-path="url(#clip0)">
<path d="M6.51142 5.46875C6.51142 5.46875 10.7944 12.6875 14.2168 12.6875C17.6393 12.6875 21.9223 5.46875 21.9223 5.46875L24.961 12.6875H14.2168H3.47266L6.51142 5.46875Z" fill="url(#paint1_linear)"/>
<g filter="url(#filter1_i)">
<path d="M24.9613 15.75C24.9613 17.3206 20.1024 18.5937 14.1086 18.5937C8.11478 18.5937 3.25586 17.3206 3.25586 15.75C3.25586 14.1794 8.11478 12.9062 14.1086 12.9062C20.1024 12.9063 24.9613 14.1794 24.9613 15.75Z" fill="url(#paint2_linear)"/>
</g>
<g filter="url(#filter2_i)">
<path d="M14.1092 18.5938C20.103 18.5938 24.9619 17.0814 24.9619 15.7581C24.9619 11.6752 27.1324 6.30594 27.1324 6.30594C27.1324 6.30594 22.3079 11.4281 20.4038 11.3399C18.557 11.2544 14.1092 3.28125 14.1092 3.28125C14.1092 3.28125 9.6614 11.2544 7.81462 11.3399C5.91044 11.4281 1.08594 6.30594 1.08594 6.30594C1.08594 6.30594 3.25648 11.6752 3.25648 15.7581C3.25648 17.365 8.1154 18.5938 14.1092 18.5938Z" fill="url(#paint3_linear)"/>
</g>
<ellipse cx="14.217" cy="2.95313" rx="1.84496" ry="1.85938" fill="url(#paint4_radial)"/>
<g filter="url(#filter3_d)">
<ellipse cx="1.30233" cy="6.5625" rx="1.30233" ry="1.3125" fill="url(#paint5_radial)"/>
</g>
<g filter="url(#filter4_d)">
<ellipse cx="21.9232" cy="5.46875" rx="1.08527" ry="1.09375" fill="url(#paint6_radial)"/>
</g>
<g filter="url(#filter5_d)">
<ellipse cx="6.51105" cy="5.46875" rx="1.08527" ry="1.09375" fill="url(#paint7_radial)"/>
</g>
<mask id="mask0" mask-type="alpha" maskUnits="userSpaceOnUse" x="9" y="9" width="10" height="10">
<path d="M14.2171 17.5834C16.2519 17.5834 17.8887 15.9231 17.8887 13.8906C17.8887 11.8582 16.2519 10.1978 14.2171 10.1978C12.1823 10.1978 10.5455 11.8582 10.5455 13.8906C10.5455 15.9231 12.1823 17.5834 14.2171 17.5834Z" fill="#FF8B01" stroke="#FFF59F" stroke-width="1.91684"/>
</mask>
<g mask="url(#mask0)">
<path d="M16.8572 11.3243L16.1662 11.9885L16.8572 11.3243C16.1916 10.6318 15.2546 10.1978 14.2171 10.1978C13.1796 10.1978 12.2426 10.6318 11.577 11.3243C10.9386 11.9886 10.5455 12.895 10.5455 13.8906C10.5455 14.8863 10.9386 15.7927 11.577 16.4569C12.2426 17.1495 13.1796 17.5834 14.2171 17.5834C15.3329 17.5834 16.3317 17.0817 17.0026 16.2965C17.5549 15.6501 17.8887 14.8079 17.8887 13.8906C17.8887 12.895 17.4956 11.9886 16.8572 11.3243Z" fill="#01D6FF" stroke="#B1D3ED" stroke-width="1.91684"/>
<path d="M14.2171 13.8906V16.625C15.0395 16.625 15.7764 16.2563 16.2739 15.6739L14.2171 13.8906Z" fill="url(#paint8_linear)"/>
<path d="M14.2171 13.8906H11.5039C11.5039 14.6299 11.795 15.3006 12.268 15.7928L14.2171 13.8906Z" fill="url(#paint9_linear)"/>
<path fill-rule="evenodd" clip-rule="evenodd" d="M14.2171 13.8906H16.9303C16.9303 13.1514 16.6392 12.4806 16.1662 11.9885L14.2171 13.8906ZM12.268 11.9885L14.2171 13.8906V11.1562C13.4522 11.1562 12.7612 11.4753 12.268 11.9885Z" fill="url(#paint10_linear)"/>
<ellipse cx="14.2167" cy="13.8907" rx="1.76946" ry="1.78329" fill="url(#paint11_linear)" stroke="url(#paint12_linear)" stroke-width="0.958418"/>
</g>
</g>
<defs>
<filter id="filter0_d" x="21.8685" y="3.48651" width="9.6586" height="9.67896" filterUnits="userSpaceOnUse" color-interpolation-filters="sRGB">
<feFlood flood-opacity="0" result="BackgroundImageFix"/>
<feColorMatrix in="SourceAlpha" type="matrix" values="0 0 0 0 0 0 0 0 0 0 0 0 0 0 0 0 0 0 127 0"/>
<feOffset dy="1.76349"/>
<feGaussianBlur stdDeviation="1.76349"/>
<feColorMatrix type="matrix" values="0 0 0 0 0 0 0 0 0 0 0 0 0 0 0 0 0 0 0.15 0"/>
<feBlend mode="color-burn" in2="BackgroundImageFix" result="effect1_dropShadow"/>
<feBlend mode="normal" in="SourceGraphic" in2="effect1_dropShadow" result="shape"/>
</filter>
<filter id="filter1_i" x="3.25586" y="12.9062" width="21.7054" height="5.6875" filterUnits="userSpaceOnUse" color-interpolation-filters="sRGB">
<feFlood flood-opacity="0" result="BackgroundImageFix"/>
<feBlend mode="normal" in="SourceGraphic" in2="BackgroundImageFix" result="shape"/>
<feColorMatrix in="SourceAlpha" type="matrix" values="0 0 0 0 0 0 0 0 0 0 0 0 0 0 0 0 0 0 127 0" result="hardAlpha"/>
<feOffset dy="1.76349"/>
<feComposite in2="hardAlpha" operator="arithmetic" k2="-1" k3="1"/>
<feColorMatrix type="matrix" values="0 0 0 0 1 0 0 0 0 0.984314 0 0 0 0 0.894118 0 0 0 0.6 0"/>
<feBlend mode="normal" in2="shape" result="effect1_innerShadow"/>
</filter>
<filter id="filter2_i" x="1.08594" y="3.28125" width="26.0465" height="15.3125" filterUnits="userSpaceOnUse" color-interpolation-filters="sRGB">
<feFlood flood-opacity="0" result="BackgroundImageFix"/>
<feBlend mode="normal" in="SourceGraphic" in2="BackgroundImageFix" result="shape"/>
<feColorMatrix in="SourceAlpha" type="matrix" values="0 0 0 0 0 0 0 0 0 0 0 0 0 0 0 0 0 0 127 0" result="hardAlpha"/>
<feOffset dy="1.76349"/>
<feComposite in2="hardAlpha" operator="arithmetic" k2="-1" k3="1"/>
<feColorMatrix type="matrix" values="0 0 0 0 1 0 0 0 0 0.984314 0 0 0 0 0.894118 0 0 0 0.6 0"/>
<feBlend mode="normal" in2="shape" result="effect1_innerShadow"/>
</filter>
<filter id="filter3_d" x="-3.52698" y="3.48651" width="9.65861" height="9.67896" filterUnits="userSpaceOnUse" color-interpolation-filters="sRGB">
<feFlood flood-opacity="0" result="BackgroundImageFix"/>
<feColorMatrix in="SourceAlpha" type="matrix" values="0 0 0 0 0 0 0 0 0 0 0 0 0 0 0 0 0 0 127 0"/>
<feOffset dy="1.76349"/>
<feGaussianBlur stdDeviation="1.76349"/>
<feColorMatrix type="matrix" values="0 0 0 0 0 0 0 0 0 0 0 0 0 0 0 0 0 0 0.15 0"/>
<feBlend mode="color-burn" in2="BackgroundImageFix" result="effect1_dropShadow"/>
<feBlend mode="normal" in="SourceGraphic" in2="effect1_dropShadow" result="shape"/>
</filter>
<filter id="filter4_d" x="17.3109" y="2.61151" width="9.2245" height="9.24146" filterUnits="userSpaceOnUse" color-interpolation-filters="sRGB">
<feFlood flood-opacity="0" result="BackgroundImageFix"/>
<feColorMatrix in="SourceAlpha" type="matrix" values="0 0 0 0 0 0 0 0 0 0 0 0 0 0 0 0 0 0 127 0"/>
<feOffset dy="1.76349"/>
<feGaussianBlur stdDeviation="1.76349"/>
<feColorMatrix type="matrix" values="0 0 0 0 0 0 0 0 0 0 0 0 0 0 0 0 0 0 0.15 0"/>
<feBlend mode="color-burn" in2="BackgroundImageFix" result="effect1_dropShadow"/>
<feBlend mode="normal" in="SourceGraphic" in2="effect1_dropShadow" result="shape"/>
</filter>
<filter id="filter5_d" x="1.8988" y="2.61151" width="9.2245" height="9.24146" filterUnits="userSpaceOnUse" color-interpolation-filters="sRGB">
<feFlood flood-opacity="0" result="BackgroundImageFix"/>
<feColorMatrix in="SourceAlpha" type="matrix" values="0 0 0 0 0 0 0 0 0 0 0 0 0 0 0 0 0 0 127 0"/>
<feOffset dy="1.76349"/>
<feGaussianBlur stdDeviation="1.76349"/>
<feColorMatrix type="matrix" values="0 0 0 0 0 0 0 0 0 0 0 0 0 0 0 0 0 0 0.15 0"/>
<feBlend mode="color-burn" in2="BackgroundImageFix" result="effect1_dropShadow"/>
<feBlend mode="normal" in="SourceGraphic" in2="effect1_dropShadow" result="shape"/>
</filter>
<radialGradient id="paint0_radial" cx="0" cy="0" r="1" gradientUnits="userSpaceOnUse" gradientTransform="translate(26.6978 6.02206) rotate(90) scale(1.85294 2.71956)">
<stop offset="0.20442" stop-color="white"/>
<stop offset="0.4375" stop-color="#A8C8DF"/>
<stop offset="1" stop-color="#6CA7D2"/>
</radialGradient>
<linearGradient id="paint1_linear" x1="3.47266" y1="9.56829" x2="24.961" y2="9.56829" gradientUnits="userSpaceOnUse">
<stop stop-color="#71A2C5"/>
<stop offset="0.502762" stop-color="#60B2EC"/>
<stop offset="1" stop-color="#71A2C5"/>
</linearGradient>
<linearGradient id="paint2_linear" x1="3.25586" y1="16.1362" x2="24.9613" y2="16.1362" gradientUnits="userSpaceOnUse">
<stop stop-color="#9CC0DA"/>
<stop offset="0.436464" stop-color="#E8F6FF"/>
<stop offset="0.569061" stop-color="#E8F6FF"/>
<stop offset="1" stop-color="#9CC0DA"/>
</linearGradient>
<linearGradient id="paint3_linear" x1="1.08594" y1="11.9772" x2="27.1324" y2="11.9772" gradientUnits="userSpaceOnUse">
<stop stop-color="#9CC0DA"/>
<stop offset="0.436464" stop-color="#E8F6FF"/>
<stop offset="0.569061" stop-color="#E8F6FF"/>
<stop offset="1" stop-color="#9CC0DA"/>
</linearGradient>
<radialGradient id="paint4_radial" cx="0" cy="0" r="1" gradientUnits="userSpaceOnUse" gradientTransform="translate(14.217 2.1875) rotate(90) scale(2.625 3.85271)">
<stop offset="0.20442" stop-color="white"/>
<stop offset="0.4375" stop-color="#A8C8DF"/>
<stop offset="1" stop-color="#6CA7D2"/>
</radialGradient>
<radialGradient id="paint5_radial" cx="0" cy="0" r="1" gradientUnits="userSpaceOnUse" gradientTransform="translate(1.30233 6.02206) rotate(90) scale(1.85294 2.71956)">
<stop offset="0.20442" stop-color="white"/>
<stop offset="0.4375" stop-color="#A8C8DF"/>
<stop offset="1" stop-color="#6CA7D2"/>
</radialGradient>
<radialGradient id="paint6_radial" cx="0" cy="0" r="1" gradientUnits="userSpaceOnUse" gradientTransform="translate(21.9232 5.01838) rotate(90) scale(1.54412 2.26631)">
<stop offset="0.20442" stop-color="#F1F9FF"/>
<stop offset="0.4375" stop-color="#8AB4D2"/>
<stop offset="1" stop-color="#6CA7D2"/>
</radialGradient>
<radialGradient id="paint7_radial" cx="0" cy="0" r="1" gradientUnits="userSpaceOnUse" gradientTransform="translate(6.51105 5.01838) rotate(90) scale(1.54412 2.2663)">
<stop offset="0.20442" stop-color="#F1F9FF"/>
<stop offset="0.4375" stop-color="#8AB4D2"/>
<stop offset="1" stop-color="#6CA7D2"/>
</radialGradient>
<linearGradient id="paint8_linear" x1="12.8015" y1="11.5129" x2="16.4953" y2="16.4786" gradientUnits="userSpaceOnUse">
<stop stop-color="white"/>
<stop offset="1" stop-color="white" stop-opacity="0.25"/>
</linearGradient>
<linearGradient id="paint9_linear" x1="12.8015" y1="11.5129" x2="16.4953" y2="16.4786" gradientUnits="userSpaceOnUse">
<stop stop-color="white"/>
<stop offset="1" stop-color="white" stop-opacity="0.25"/>
</linearGradient>
<linearGradient id="paint10_linear" x1="12.8015" y1="11.5129" x2="16.4953" y2="16.4786" gradientUnits="userSpaceOnUse">
<stop stop-color="white"/>
<stop offset="1" stop-color="white" stop-opacity="0.25"/>
</linearGradient>
<linearGradient id="paint11_linear" x1="13.273" y1="12.4641" x2="15.4193" y2="15.6586" gradientUnits="userSpaceOnUse">
<stop stop-color="#0185FF"/>
<stop offset="1" stop-color="#01F0FF"/>
</linearGradient>
<linearGradient id="paint12_linear" x1="12.9191" y1="12.3452" x2="15.3022" y2="15.5374" gradientUnits="userSpaceOnUse">
<stop stop-color="#01D6FF"/>
<stop offset="1" stop-color="#01D6FF"/>
</linearGradient>
<clipPath id="clip0">
<rect width="28" height="21" fill="white"/>
</clipPath>
</defs>
</svg>
