<svg width="28" height="21" viewBox="0 0 28 21" fill="none" xmlns="http://www.w3.org/2000/svg">
<path d="M6.51142 5.46875C6.51142 5.46875 10.7944 12.6875 14.2168 12.6875C17.6393 12.6875 21.9223 5.46875 21.9223 5.46875L24.961 12.6875L14.2168 12.6875L3.47266 12.6875L6.51142 5.46875Z" fill="url(#paint0_linear)"/>
<g filter="url(#filter0_i)">
<path d="M24.9613 15.75C24.9613 17.3206 20.1024 18.5938 14.1086 18.5938C8.11479 18.5938 3.25586 17.3206 3.25586 15.75C3.25586 14.1794 8.11479 12.9062 14.1086 12.9063C20.1024 12.9063 24.9613 14.1794 24.9613 15.75Z" fill="url(#paint1_linear)"/>
</g>
<g filter="url(#filter1_i)">
<path d="M14.1082 18.5938C20.102 18.5938 24.9609 17.0814 24.9609 15.7581C24.9609 11.6752 27.1315 6.30594 27.1315 6.30594C27.1315 6.30594 22.307 11.4281 20.4028 11.3399C18.556 11.2544 14.1082 3.28125 14.1082 3.28125C14.1082 3.28125 9.66042 11.2544 7.81364 11.3399C5.90946 11.4281 1.08496 6.30594 1.08496 6.30594C1.08496 6.30594 3.2555 11.6752 3.2555 15.7581C3.2555 17.365 8.11443 18.5938 14.1082 18.5938Z" fill="url(#paint2_linear)"/>
</g>
<mask id="mask0" mask-type="alpha" maskUnits="userSpaceOnUse" x="1" y="3" width="27" height="16">
<path d="M14.1082 18.556C20.102 18.556 24.9609 17.0474 24.9609 15.7274C24.9609 11.6545 27.1315 6.29849 27.1315 6.29849C27.1315 6.29849 22.307 11.4102 20.4028 11.3222C18.556 11.2369 14.1082 3.28125 14.1082 3.28125C14.1082 3.28125 9.66042 11.2369 7.81364 11.3222C5.90946 11.4102 1.08496 6.29849 1.08496 6.29849C1.08496 6.29849 3.2555 11.6545 3.2555 15.7274C3.2555 17.3303 8.11443 18.556 14.1082 18.556Z" fill="url(#paint3_linear)"/>
</mask>
<g mask="url(#mask0)">
<g opacity="0.6" filter="url(#filter2_f)">
<ellipse cx="14.217" cy="4.01172" rx="1.84496" ry="1.85938" fill="#E65C2C"/>
</g>
<path d="M25.3949 14.1582C24.9608 15.4782 20.1019 16.9869 14.1081 16.9869C8.11432 16.9869 3.2554 15.7611 2.82129 14.1582" stroke="url(#paint4_linear)" stroke-width="3.52698" stroke-linecap="round" stroke-linejoin="round"/>
</g>
<ellipse cx="14.217" cy="2.95312" rx="1.84496" ry="1.85938" fill="url(#paint5_radial)"/>
<ellipse cx="1.30233" cy="6.5625" rx="1.30233" ry="1.3125" fill="url(#paint6_radial)"/>
<ellipse cx="26.6978" cy="6.5625" rx="1.30233" ry="1.3125" fill="url(#paint7_radial)"/>
<ellipse cx="21.9222" cy="5.46875" rx="1.08527" ry="1.09375" fill="url(#paint8_radial)"/>
<ellipse cx="6.51105" cy="5.46875" rx="1.08527" ry="1.09375" fill="url(#paint9_radial)"/>
<mask id="mask1" mask-type="alpha" maskUnits="userSpaceOnUse" x="9" y="9" width="10" height="10">
<path d="M14.2171 17.5834C16.2519 17.5834 17.8887 15.9231 17.8887 13.8906C17.8887 11.8582 16.2519 10.1978 14.2171 10.1978C12.1823 10.1978 10.5455 11.8582 10.5455 13.8906C10.5455 15.9231 12.1823 17.5834 14.2171 17.5834Z" fill="#FF8B01" stroke="#FFF59F" stroke-width="1.91684"/>
</mask>
<g mask="url(#mask1)">
<path d="M17.0026 16.2965C17.5549 15.6501 17.8887 14.8079 17.8887 13.8906C17.8887 12.895 17.4956 11.9886 16.8572 11.3243C16.1916 10.6318 15.2546 10.1978 14.2171 10.1978C13.1796 10.1978 12.2426 10.6318 11.577 11.3243C10.9386 11.9886 10.5455 12.895 10.5455 13.8906C10.5455 14.8863 10.9386 15.7927 11.577 16.4569C12.2426 17.1495 13.1796 17.5834 14.2171 17.5834C15.3329 17.5834 16.3317 17.0817 17.0026 16.2965Z" fill="#FF0101" stroke="#FF6F31" stroke-width="1.91684"/>
<path d="M14.2171 13.8906V16.625C15.0394 16.625 15.7764 16.2563 16.2739 15.6739L14.2171 13.8906Z" fill="url(#paint10_linear)"/>
<path d="M14.2171 13.8906H11.5039C11.5039 14.6299 11.795 15.3006 12.268 15.7928L14.2171 13.8906Z" fill="url(#paint11_linear)"/>
<path fill-rule="evenodd" clip-rule="evenodd" d="M14.2171 13.8906H16.9303C16.9303 13.1514 16.6392 12.4806 16.1662 11.9885L14.2171 13.8906ZM12.268 11.9885L14.2171 13.8906V11.1562C13.4522 11.1562 12.7612 11.4753 12.268 11.9885Z" fill="url(#paint12_linear)"/>
<ellipse cx="14.2167" cy="13.8907" rx="1.76946" ry="1.78329" fill="url(#paint13_linear)" stroke="url(#paint14_linear)" stroke-width="0.958418"/>
</g>
<defs>
<filter id="filter0_i" x="3.25586" y="12.9062" width="21.7054" height="5.6875" filterUnits="userSpaceOnUse" color-interpolation-filters="sRGB">
<feFlood flood-opacity="0" result="BackgroundImageFix"/>
<feBlend mode="normal" in="SourceGraphic" in2="BackgroundImageFix" result="shape"/>
<feColorMatrix in="SourceAlpha" type="matrix" values="0 0 0 0 0 0 0 0 0 0 0 0 0 0 0 0 0 0 127 0" result="hardAlpha"/>
<feOffset dy="1.76349"/>
<feComposite in2="hardAlpha" operator="arithmetic" k2="-1" k3="1"/>
<feColorMatrix type="matrix" values="0 0 0 0 1 0 0 0 0 0.932235 0 0 0 0 0.894118 0 0 0 0.6 0"/>
<feBlend mode="normal" in2="shape" result="effect1_innerShadow"/>
</filter>
<filter id="filter1_i" x="1.08496" y="3.28125" width="26.0465" height="15.3125" filterUnits="userSpaceOnUse" color-interpolation-filters="sRGB">
<feFlood flood-opacity="0" result="BackgroundImageFix"/>
<feBlend mode="normal" in="SourceGraphic" in2="BackgroundImageFix" result="shape"/>
<feColorMatrix in="SourceAlpha" type="matrix" values="0 0 0 0 0 0 0 0 0 0 0 0 0 0 0 0 0 0 127 0" result="hardAlpha"/>
<feOffset dy="1.76349"/>
<feComposite in2="hardAlpha" operator="arithmetic" k2="-1" k3="1"/>
<feColorMatrix type="matrix" values="0 0 0 0 1 0 0 0 0 0.932235 0 0 0 0 0.894118 0 0 0 0.6 0"/>
<feBlend mode="normal" in2="shape" result="effect1_innerShadow"/>
</filter>
<filter id="filter2_f" x="8.84509" y="-1.37463" width="10.7439" height="10.7727" filterUnits="userSpaceOnUse" color-interpolation-filters="sRGB">
<feFlood flood-opacity="0" result="BackgroundImageFix"/>
<feBlend mode="normal" in="SourceGraphic" in2="BackgroundImageFix" result="shape"/>
<feGaussianBlur stdDeviation="1.76349" result="effect1_foregroundBlur"/>
</filter>
<linearGradient id="paint0_linear" x1="3.90677" y1="10.1603" x2="24.5269" y2="10.1603" gradientUnits="userSpaceOnUse">
<stop stop-color="#D64513"/>
<stop offset="0.508287" stop-color="#FF7E51"/>
<stop offset="1" stop-color="#D64513"/>
</linearGradient>
<linearGradient id="paint1_linear" x1="3.25586" y1="16.1362" x2="24.9613" y2="16.1362" gradientUnits="userSpaceOnUse">
<stop stop-color="#FF3D00"/>
<stop offset="0.436464" stop-color="#FFAA6C"/>
<stop offset="0.569061" stop-color="#FFAA6C"/>
<stop offset="1" stop-color="#FF3D00"/>
</linearGradient>
<linearGradient id="paint2_linear" x1="1.08496" y1="11.9772" x2="27.1315" y2="11.9772" gradientUnits="userSpaceOnUse">
<stop stop-color="#FF7A00"/>
<stop offset="0.436464" stop-color="#FFAA6C"/>
<stop offset="0.569061" stop-color="#FFAA6C"/>
<stop offset="1" stop-color="#FF7A00"/>
</linearGradient>
<linearGradient id="paint3_linear" x1="1.08496" y1="11.9558" x2="27.1315" y2="11.9558" gradientUnits="userSpaceOnUse">
<stop stop-color="#FFB800"/>
<stop offset="0.436464" stop-color="#FFE662"/>
<stop offset="0.569061" stop-color="#FFE662"/>
<stop offset="1" stop-color="#FFB800"/>
</linearGradient>
<linearGradient id="paint4_linear" x1="2.82129" y1="14.8748" x2="25.3949" y2="14.8748" gradientUnits="userSpaceOnUse">
<stop stop-color="#DC4E1C"/>
<stop offset="0.364183" stop-color="#DC4E1C" stop-opacity="0.4"/>
<stop offset="0.645433" stop-color="#DC4E1C" stop-opacity="0.4"/>
<stop offset="1" stop-color="#DC4E1C"/>
</linearGradient>
<radialGradient id="paint5_radial" cx="0" cy="0" r="1" gradientUnits="userSpaceOnUse" gradientTransform="translate(14.217 2.1875) rotate(90) scale(2.625 3.85272)">
<stop offset="0.20442" stop-color="white"/>
<stop offset="0.4375" stop-color="#FFAA6C"/>
<stop offset="1" stop-color="#FF571A"/>
</radialGradient>
<radialGradient id="paint6_radial" cx="0" cy="0" r="1" gradientUnits="userSpaceOnUse" gradientTransform="translate(1.30233 6.02206) rotate(90) scale(1.85294 2.71956)">
<stop offset="0.20442" stop-color="white"/>
<stop offset="0.4375" stop-color="#FFAA6C"/>
<stop offset="1" stop-color="#FF571A"/>
</radialGradient>
<radialGradient id="paint7_radial" cx="0" cy="0" r="1" gradientUnits="userSpaceOnUse" gradientTransform="translate(26.6978 6.02206) rotate(90) scale(1.85294 2.71956)">
<stop offset="0.20442" stop-color="white"/>
<stop offset="0.4375" stop-color="#FFAA6C"/>
<stop offset="1" stop-color="#FF571A"/>
</radialGradient>
<radialGradient id="paint8_radial" cx="0" cy="0" r="1" gradientUnits="userSpaceOnUse" gradientTransform="translate(21.9222 5.01838) rotate(90) scale(1.54412 2.26631)">
<stop offset="0.20442" stop-color="#FFECE3"/>
<stop offset="0.4375" stop-color="#FF8C5A"/>
<stop offset="1" stop-color="#FF571A"/>
</radialGradient>
<radialGradient id="paint9_radial" cx="0" cy="0" r="1" gradientUnits="userSpaceOnUse" gradientTransform="translate(6.51105 5.01838) rotate(90) scale(1.54412 2.2663)">
<stop offset="0.20442" stop-color="#FFECE3"/>
<stop offset="0.4375" stop-color="#FF8C5A"/>
<stop offset="1" stop-color="#FF571A"/>
</radialGradient>
<linearGradient id="paint10_linear" x1="12.8015" y1="11.5129" x2="16.4953" y2="16.4786" gradientUnits="userSpaceOnUse">
<stop stop-color="white"/>
<stop offset="1" stop-color="white" stop-opacity="0.25"/>
</linearGradient>
<linearGradient id="paint11_linear" x1="12.8015" y1="11.5129" x2="16.4953" y2="16.4786" gradientUnits="userSpaceOnUse">
<stop stop-color="white"/>
<stop offset="1" stop-color="white" stop-opacity="0.25"/>
</linearGradient>
<linearGradient id="paint12_linear" x1="12.8015" y1="11.5129" x2="16.4953" y2="16.4786" gradientUnits="userSpaceOnUse">
<stop stop-color="white"/>
<stop offset="1" stop-color="white" stop-opacity="0.25"/>
</linearGradient>
<linearGradient id="paint13_linear" x1="13.273" y1="12.4641" x2="15.4193" y2="15.6586" gradientUnits="userSpaceOnUse">
<stop stop-color="#AE0053"/>
<stop offset="1" stop-color="#FF0101"/>
</linearGradient>
<linearGradient id="paint14_linear" x1="12.9191" y1="12.3452" x2="15.3022" y2="15.5374" gradientUnits="userSpaceOnUse">
<stop stop-color="#FF0101"/>
<stop offset="1" stop-color="#FF0101"/>
</linearGradient>
</defs>
</svg>
